<?xml version="1.0" encoding="utf-8"?>
<!-- Generator: Adobe Illustrator 24.1.1, SVG Export Plug-In . SVG Version: 6.00 Build 0)  -->
<svg version="1.1" id="Layer_1" xmlns="http://www.w3.org/2000/svg" xmlns:xlink="http://www.w3.org/1999/xlink" x="0px" y="0px"
	 viewBox="0 0 393 481.5" style="enable-background:new 0 0 393 481.5;" xml:space="preserve">
<style type="text/css">
	.st0{fill:#FEFEFE;}
	.st1{fill:#F2F2F2;}
	.st2{fill:#EBEBEB;}
	.st3{fill:#F3F3F3;}
	.st4{fill:#CBCBCB;}
	.st5{fill:#F5F5F5;}
	.st6{fill:#E4E4E4;}
	.st7{fill:#C9C9C9;}
	.st8{fill:#EEEEEE;}
	.st9{fill:#F4F4F4;}
	.st10{fill:#EFEFEF;}
	.st11{fill:#F1F1F1;}
	.st12{fill:#ECECEC;}
	.st13{fill:#E3E3E3;}
	.st14{fill:#E6E6E6;}
	.st15{fill:#EAEAEA;}
	.st16{fill:#F0F0F0;}
	.st17{fill:#CCCCCC;}
	.st18{fill:#E9E9E9;}
	.st19{fill:#E0E0E0;}
	.st20{fill:#E7E7E7;}
	.st21{fill:#E8E8E8;}
	.st22{fill:#E5E5E5;}
	.st23{fill:#D4D4D4;}
	.st24{fill:#DFDFDF;}
	.st25{fill:#C7C7C7;}
	.st26{fill:#EDEDED;}
	.st27{fill:#CACACA;}
	.st28{fill:#DCDCDC;}
	.st29{fill:#C5C5C5;}
	.st30{fill:#C6C6C6;}
</style>
<g>
	<g>
		<path class="st0" d="M393,240.8c0,79.5,0,159,0,238.5c0,1.9-0.4,2.3-2.3,2.3c-129.5-0.1-258.9-0.1-388.4,0c-1.9,0-2.3-0.4-2.3-2.3
			c0.1-159,0.1-317.9,0-476.9C0,0.4,0.4,0,2.3,0c129.5,0.1,258.9,0.1,388.4,0c1.9,0,2.3,0.4,2.3,2.3C392.9,81.8,393,161.3,393,240.8
			z"/>
		<path class="st1" d="M134.9,101.4c-6.9,0-13.9,0-20.8,0c0-0.1,0-0.2,0-0.2c7,0,13.9,0,20.9,0C134.9,101.2,134.9,101.3,134.9,101.4
			z"/>
		<path class="st2" d="M32.5,160.5c0.8,2.6,0.4,5.3,0.5,8.4C32.1,165.5,31.9,163.3,32.5,160.5z"/>
		<path class="st3" d="M311.4,315.2c-0.6,2-2.6,2.1-3.5,3.4c-0.3,0.4-0.7-0.1-1-0.4c-0.4-0.5,0-0.7,0.4-0.9
			C308.6,316.6,309.9,316,311.4,315.2z"/>
		<path class="st4" d="M154.5,111.5c0,1.3,0,2.6,0,4c-0.9-2.6-1.2-5.2-0.9-8.1C154.6,108.8,153.3,110.4,154.5,111.5L154.5,111.5z"/>
		<path class="st5" d="M145.6,231.4c0-3,0-5.9,0-8.9c0.1,0,0.2,0,0.3,0c0,2.9,0,5.9,0,8.8C145.8,231.4,145.7,231.4,145.6,231.4z"/>
		<path class="st6" d="M158.4,191.1c0.4-2.1,0-4.3,0.4-6.5C158.9,186.8,159.4,189,158.4,191.1z"/>
		<path class="st7" d="M154,103.2c2.5,0,5,0,7.4,0c0,0.1,0,0.1,0,0.2c-2.5,0-5,0-7.4,0C154,103.3,154,103.2,154,103.2z"/>
		<path class="st2" d="M103.9,228.1c0,2,0,4,0,6c-0.1,0-0.2,0-0.4,0c0-2,0-3.9,0-5.9C103.6,228.1,103.8,228.1,103.9,228.1z"/>
		<path class="st8" d="M157.2,173.1c0.1,1.5,0.7,3.1-0.5,4.6C156.1,176,157.5,174.6,157.2,173.1z"/>
		<path class="st9" d="M159.5,347.1c0-1.4,1-1.8,2.1-2.9C161.6,346.3,160.4,346.6,159.5,347.1z"/>
		<path class="st10" d="M48.4,259.6c0,1.8,0,3.6,0,5.4c-0.1,0-0.2,0-0.2,0c0-1.8,0-3.6,0-5.4C48.2,259.6,48.3,259.6,48.4,259.6z"/>
		<path class="st11" d="M143.6,230.5c0-1.8,0-3.6,0-5.4c0.1,0,0.1,0,0.2,0c0,1.8,0,3.6,0,5.4C143.8,230.5,143.7,230.5,143.6,230.5z"
			/>
		<path class="st6" d="M51.4,153.6c0,1.8,0,3.5,0,5.3c-0.1,0-0.2,0-0.3,0c0-1.8,0-3.5,0-5.3C51.3,153.6,51.4,153.6,51.4,153.6z"/>
		<path class="st12" d="M38.8,141.9c-0.6,1.2-1.2,2.5-1.9,3.7C36.8,144.1,37.6,142.9,38.8,141.9z"/>
		<path class="st13" d="M163.9,110.5c-0.4,0.9-1,1.5-1.9,1.9C161.9,110.7,161.9,110.7,163.9,110.5z"/>
		<path class="st1" d="M296.8,324.6c1.1-0.5,2.1-1,3.2-1.6c-0.4,1.7-1.9,1.4-2.8,2.1C297.1,324.9,297,324.8,296.8,324.6z"/>
		<path class="st10" d="M227.9,22.6c0,1.5,0,3,0,4.5c-0.1,0-0.2,0-0.3,0c-0.1-1.5-0.2-3-0.3-4.4C227.5,22.6,227.7,22.6,227.9,22.6z"
			/>
		<path class="st10" d="M57.4,250.6c0,1.6,0,3.2,0,4.8c-0.1,0-0.2,0-0.2,0c0-1.6,0-3.2,0-4.8C57.3,250.6,57.3,250.6,57.4,250.6z"/>
		<path class="st3" d="M210.1,343.9c0-1.6,0-3.2,0-4.9C210.6,340.7,210.5,342.3,210.1,343.9z"/>
		<path class="st3" d="M323.1,293.8c0-1.6,0-3.2,0-4.8c0.1,0,0.2,0,0.2,0c0,1.6,0,3.3,0,4.9C323.2,293.9,323.2,293.9,323.1,293.8z"
			/>
		<path class="st1" d="M249.5,41.4c-1.7,0-3.3,0-5,0c0-0.1,0-0.2,0-0.2c1.7,0,3.3,0,5,0C249.5,41.2,249.5,41.3,249.5,41.4z"/>
		<path class="st3" d="M234.9,412.3c-1.4,0-2.9,0-4.3,0c0-0.1,0-0.2,0-0.2c1.5,0,2.9,0,4.4,0C234.9,412.2,234.9,412.3,234.9,412.3z"
			/>
		<path class="st14" d="M328.4,43.5c-1.4,0-2.9,0-4.3,0c0-0.1,0-0.2,0-0.3c1.4,0,2.9,0,4.3,0C328.4,43.3,328.4,43.4,328.4,43.5z"/>
		<ellipse class="st15" cx="52.3" cy="229.3" rx="0.2" ry="3.1"/>
		<ellipse class="st2" cx="70.8" cy="208.8" rx="0.2" ry="3.2"/>
		<path class="st11" d="M127.9,196.1c0,1.4,0,2.9,0,4.3c-0.1,0-0.2,0-0.3,0c0-1.4,0-2.9,0-4.3C127.8,196.1,127.8,196.1,127.9,196.1z
			"/>
		<path class="st3" d="M312.6,415.1c1.3,0,2.5,0,3.8,0c0,0.1,0,0.2,0,0.2c-1.3,0-2.5,0-3.8,0C312.6,415.2,312.6,415.1,312.6,415.1z"
			/>
		<path class="st1" d="M99.4,164.6c0,1.3,0,2.5,0,3.8c-0.1,0-0.2,0-0.2,0c0-1.3,0-2.5,0-3.8C99.3,164.6,99.4,164.6,99.4,164.6z"/>
		<path class="st16" d="M223.6,30.4c0-1.3,0-2.5,0-3.8c0.1,0,0.2,0,0.2,0c0,1.3,0,2.5,0,3.8C223.7,30.4,223.7,30.4,223.6,30.4z"/>
		<path class="st3" d="M284.5,31.7c1.2,0,2.4,0,3.6,0c0,0.1,0,0.3,0,0.4c-1.2-0.1-2.4-0.2-3.6-0.2C284.5,31.9,284.5,31.8,284.5,31.7
			z"/>
		<ellipse class="st10" cx="222.5" cy="377.2" rx="2.8" ry="0.2"/>
		<path class="st16" d="M219.1,375.6c1.3,0,2.5,0,3.8,0c0,0.1,0,0.2,0,0.2c-1.3,0-2.5,0-3.8,0C219.1,375.7,219.1,375.6,219.1,375.6z
			"/>
		<ellipse class="st2" cx="105.8" cy="230" rx="0.2" ry="2.8"/>
		<ellipse class="st16" cx="111.3" cy="293.5" rx="0.2" ry="2.8"/>
		<path class="st6" d="M159.3,125.8c0,1.2,0,2.4,0,3.6c-0.1,0-0.2,0-0.2,0c-0.1-1.2-0.1-2.4-0.2-3.6
			C159.1,125.9,159.2,125.8,159.3,125.8z"/>
		<path class="st8" d="M196.4,82.9c-1.3,0-2.5,0-3.8,0c0-0.1,0-0.2,0-0.2c1.3,0,2.5,0,3.8,0C196.4,82.8,196.4,82.9,196.4,82.9z"/>
		<path class="st10" d="M81.9,215.1c0,1.3,0,2.5,0,3.8c-0.1,0-0.1,0-0.2,0c0-1.2,0-2.5,0-3.7C81.8,215.1,81.9,215.1,81.9,215.1z"/>
		<path class="st11" d="M80.9,173.6c1.2,0,2.4,0,3.5,0c0,0.1,0,0.2,0,0.3c-1.2,0.1-2.4,0.1-3.7,0.2
			C80.8,173.9,80.8,173.8,80.9,173.6z"/>
		<path class="st4" d="M159.9,105.8c-1.4,0.2-2.7,0.4-4.5-0.1C157.3,105.5,158.7,105.4,159.9,105.8z"/>
		<path class="st1" d="M383.3,434.2c0,1.3,0,2.5,0,3.8c-0.1,0-0.2,0-0.2,0c0-1.3,0-2.7,0-4C383.2,434,383.2,434.1,383.3,434.2z"/>
		<path class="st10" d="M255,224.1c1.2,0,2.3,0,3.5,0c0,0.1,0,0.2,0,0.2c-1.2,0-2.3,0-3.5,0C255,224.3,255,224.2,255,224.1z"/>
		<path class="st3" d="M209.4,62.6c0,1.1,0,2.2,0,3.3c-0.1,0-0.2,0-0.2,0c0-1.1,0-2.2,0-3.3C209.2,62.6,209.3,62.6,209.4,62.6z"/>
		<path class="st10" d="M55.1,230.4c0-1.1,0-2.2,0-3.3c0.1,0,0.2,0,0.2,0c0,1.1,0,2.2,0,3.3C55.3,230.4,55.2,230.4,55.1,230.4z"/>
		<path class="st1" d="M99.2,329.6c0.4,1,1.4,0.9,2.2,1.2C100.4,330.8,99.1,331.6,99.2,329.6z"/>
		<ellipse class="st3" cx="240.7" cy="176.3" rx="0.2" ry="2.4"/>
		<path class="st17" d="M154.5,111.5c1.2-1.1,2.6-0.2,3.9,0C157.1,111.5,155.8,111.5,154.5,111.5
			C154.5,111.5,154.5,111.5,154.5,111.5z"/>
		<path class="st11" d="M214.7,184.1c-0.3-0.9-0.2-1.8-0.1-2.8C215.2,182.3,215.8,183.2,214.7,184.1z"/>
		<path class="st6" d="M40.4,145.1c0,1.1,0,2.2,0,3.3c-0.1,0-0.2,0-0.3,0c0-1.1,0-2.2,0-3.3C40.3,145.1,40.4,145.1,40.4,145.1z"/>
		<path class="st18" d="M194.7,183.2c0.4,0.8,0.4,1.5-0.1,2.2C193.8,184.6,193.9,184,194.7,183.2z"/>
		<path class="st15" d="M156.6,190.4c0-1.1,0-2.2,0-3.3c0.1,0,0.2,0,0.3,0c0,1.1,0,2.2,0,3.4C156.8,190.4,156.7,190.4,156.6,190.4z"
			/>
		<path class="st19" d="M161,113c0.8,1,0.6,1.8,0.3,2.8C161,114.8,160.2,114.2,161,113z"/>
		<path class="st18" d="M139.9,119.1c0,1.1,0,2.2,0,3.3c-0.1,0-0.2,0-0.2,0c0-1.1,0-2.2,0-3.3C139.8,119.1,139.8,119.1,139.9,119.1z
			"/>
		<ellipse class="st18" cx="8.3" cy="221.3" rx="0.2" ry="2.5"/>
		<ellipse class="st2" cx="214.2" cy="46.8" rx="2.5" ry="0.2"/>
		<path class="st11" d="M312.9,47.9c-1.1,0-2.2,0-3.3,0c0-0.1,0-0.2,0-0.2c1.1,0,2.2,0,3.3,0C312.9,47.8,312.9,47.9,312.9,47.9z"/>
		<path class="st16" d="M100.2,225.4c-0.1-1.1-0.4-2,0.1-3.1C100.6,223.5,100.7,224.5,100.2,225.4z"/>
		<path class="st20" d="M192.8,185.9c-0.3-1-0.4-1.9-0.1-3.2C193.2,184,193,185,192.8,185.9z"/>
		<path class="st11" d="M156.5,147.7c-0.5,0-0.8-0.2-0.7-0.5c0.1-0.3,0.5-0.7,0.8-0.8c0.3-0.2,0.7,0.2,0.6,0.5
			C157.1,147.2,156.7,147.5,156.5,147.7z"/>
		<path class="st8" d="M157.4,183.4c-0.4-1-0.4-1.9,0-2.9C157.4,181.5,157.4,182.5,157.4,183.4z"/>
		<path class="st10" d="M184.9,115.6c0,0.9,0,1.9,0,3.1C184.2,117.5,184.7,116.6,184.9,115.6z"/>
		<path class="st12" d="M200.9,205.6c0,0.9,0,1.9,0,2.8c-0.1,0-0.2,0-0.2,0c0-0.9,0-1.9,0-2.8C200.7,205.6,200.8,205.6,200.9,205.6z
			"/>
		<path class="st10" d="M323.9,402.9c-0.9,0-1.9,0-2.8,0c0-0.1,0-0.2,0-0.2c0.9,0,1.9,0,2.8,0C323.9,402.7,323.9,402.8,323.9,402.9z
			"/>
		<path class="st16" d="M215.3,173.9c-0.3-1-0.4-1.9-0.1-3C215.8,172,215.3,173,215.3,173.9z"/>
		<path class="st15" d="M195,197.6c-1.5,0.5-2.5,0.4-4,0.2C192.5,197.3,193.5,197.5,195,197.6z"/>
		<path class="st11" d="M64.6,322.9c0-0.9,0-1.9,0-2.8c0.1,0,0.1,0,0.2,0c0,0.9,0,1.8,0,2.8C64.8,322.9,64.7,322.9,64.6,322.9z"/>
		<path class="st16" d="M159.2,313.5c-1-0.7-1.7-0.9-2-1.8C158.2,311.6,158.6,312.2,159.2,313.5z"/>
		<path class="st1" d="M18.7,203.1c0.9,0,1.9,0,2.8,0C20.5,203.6,19.6,203.5,18.7,203.1z"/>
		<path class="st2" d="M97.8,225.2c-0.2-1.6-0.5-2.5,0.6-3.5C98.2,222.8,98,223.7,97.8,225.2z"/>
		<path class="st3" d="M189.8,106.1c0.3,1,0.4,1.9,0,3.2C189.4,108,189.5,107,189.8,106.1z"/>
		<path class="st9" d="M129.3,310.2c-0.2,0.6-0.5,1-1,1c-0.1,0-0.5-0.3-0.4-0.5c0.1-0.5,0.5-0.9,1-1
			C128.9,309.8,129.1,310,129.3,310.2z"/>
		<path class="st15" d="M302,7.3c-0.7,0.8-1.3-0.1-2,0.1C300.7,6.7,301.4,7.2,302,7.3z"/>
		<path class="st1" d="M103.5,312.4c1.2-0.6,1.8-0.4,2.3,0.2C105,313.3,104.5,312.6,103.5,312.4z"/>
		<path class="st14" d="M298,19.6c0-1.5-0.3-2.3,0.2-3.1C298.6,17.4,298.6,18.2,298,19.6z"/>
		<path class="st10" d="M194,313.4c-0.1,0.4,0,0.9-0.5,0.7c-0.2-0.1-0.4-0.5-0.4-0.7c0-0.3,0.1-0.7,0.5-0.5
			C193.8,312.8,193.9,313.2,194,313.4z"/>
		<path class="st21" d="M190.4,190.2c-0.8,0.4-1.6,0.4-2.4,0C188.9,190.2,189.6,190.2,190.4,190.2z"/>
		<path class="st16" d="M224.6,37.6c0.5,0.7,0.4,1.5,0.2,2.4C224.1,39.2,224.8,38.4,224.6,37.6z"/>
		<path class="st10" d="M128.6,229c0-1.5-0.3-2.3,0.2-3.2C129.1,226.8,129.2,227.7,128.6,229z"/>
		<path class="st16" d="M170.8,341c-0.8,0-1.6-0.1-2.9-0.2C169.3,340.4,170.2,340.3,170.8,341z"/>
		<path class="st22" d="M327.6,42.3c-1.5,0.2-2.3,0.3-3.3,0C325.3,41.9,326.1,42,327.6,42.3z"/>
		<path class="st15" d="M245.9,43.9c1.4-0.4,2.2-0.4,3,0C248.1,43.9,247.4,43.9,245.9,43.9z"/>
		<path class="st10" d="M308.6,346c0-0.8,0-1.7,0-2.5c0.1,0,0.2,0,0.2,0c0,0.8,0,1.7,0,2.5C308.8,346,308.7,346,308.6,346z"/>
		<path class="st15" d="M321.4,50.4c1.4-0.6,2.2-0.4,3.6-0.3C323.6,50.7,322.8,50.5,321.4,50.4z"/>
		<path class="st23" d="M153.6,73.1c0.8,0,1.6,0,2.6,0C155.2,73.9,154.3,73.4,153.6,73.1z"/>
		<path class="st3" d="M183.5,355.9c-0.8,0-1.6,0-2.3,0c0-0.1,0-0.2,0-0.2c0.8,0,1.5,0,2.3,0C183.4,355.7,183.4,355.8,183.5,355.9z"
			/>
		<path class="st16" d="M222,368.9c-1.5,0-2.3,0.3-3.1-0.2C219.8,368.4,220.7,368.3,222,368.9z"/>
		<path class="st9" d="M167.8,380.9c-0.4-0.8-0.4-1.6,0-2.3C167.8,379.3,167.8,380.1,167.8,380.9z"/>
		<path class="st15" d="M384.2,434.3c0.2,1.5,0.3,2.3,0,3.3C383.9,436.6,383.9,435.8,384.2,434.3z"/>
		<path class="st6" d="M177.5,86.6c1.5,0,2.3-0.3,3.1,0.2C179.7,87.1,178.8,87.2,177.5,86.6z"/>
		<path class="st13" d="M159.6,87.6c1.1,0.3,1.5,0.8,1.8,1.6C160.5,89.1,160.2,88.4,159.6,87.6z"/>
		<path class="st24" d="M171.3,102.8c0.2,0.9,0.5,1.5-0.4,2.1C170.4,104.1,171,103.5,171.3,102.8z"/>
		<path class="st25" d="M163.1,109.1c-0.3-1,0.3-1.2,0.9-1.5C164.4,108.6,163.3,108.6,163.1,109.1z"/>
		<path class="st16" d="M264.7,228.1c0.3,0.8,0.4,1.6,0.1,2.5C264.2,229.7,264.6,228.8,264.7,228.1z"/>
		<path class="st1" d="M14.1,214.5c1.3-0.7,2.1-0.4,3.4-0.5C16.2,214.7,15.4,214.4,14.1,214.5z"/>
		<path class="st21" d="M67.3,133.4c0.2,1.5,0.4,2.3,0,3.3C66.9,135.7,67,134.9,67.3,133.4z"/>
		<path class="st21" d="M67.3,141.2c-0.4-1-0.4-1.8,0-2.8C67.7,139.3,67.6,140.2,67.3,141.2z"/>
		<path class="st11" d="M80.2,284.9c0.6-0.7,1.2-0.3,1.9-0.5C81.6,285.4,81.1,285.6,80.2,284.9z"/>
		<path class="st11" d="M84.1,195.9c0-0.8,0-1.6,0-2.3c0.1,0,0.2,0,0.2,0c0,0.8,0,1.6,0,2.3C84.3,195.9,84.2,195.9,84.1,195.9z"/>
		<path class="st3" d="M200.5,237.9c-1.5,0-2.3,0.3-3.1-0.2C198.3,237.4,199.2,237.4,200.5,237.9z"/>
		<path class="st11" d="M292.9,244.9c-0.8,0-1.6,0-2.3,0c0-0.1,0-0.2,0-0.2c0.8,0,1.5,0,2.3,0C292.9,244.7,292.9,244.8,292.9,244.9z
			"/>
		<path class="st10" d="M203.3,180.6c-0.3-1.5-0.4-2.2,0-3.3C203.6,178.3,203.5,179.1,203.3,180.6z"/>
		<path class="st10" d="M205.6,177.1c0.5,0.7,0.4,1.5,0.2,2.4C205.1,178.7,205.8,177.9,205.6,177.1z"/>
		<path class="st26" d="M326.6,291.6c0.6,1.3,0.3,2.1,0.3,3.3C326.3,293.6,326.5,292.8,326.6,291.6z"/>
		<path class="st2" d="M293.6,305.1c0.5,0.7,0.4,1.5,0.2,2.4C293.1,306.7,293.7,305.9,293.6,305.1z"/>
		<path class="st2" d="M297.1,304.6c0.6,1.3,0.3,2.1,0.2,3.3C296.8,306.6,297,305.8,297.1,304.6z"/>
		<path class="st8" d="M184.7,152.8c1-0.3,1.7-0.3,2.5,0C186.3,153.2,185.7,153,184.7,152.8z"/>
		<path class="st16" d="M228.1,34.6c0.5,1.1,0.4,1.7,0.2,2.5C227.7,36.4,228.1,35.8,228.1,34.6z"/>
		<path class="st18" d="M32.8,156.3c0.4,0.5,0.9,1,0.5,1.8C32.8,157.6,32.4,157.2,32.8,156.3z"/>
		<path class="st16" d="M105.7,200.4c0.4,0.8,0.4,1.4,0.1,2.2C105.4,201.9,105.4,201.2,105.7,200.4z"/>
		<path class="st16" d="M134.8,205.1c0.2,0.7,0.4,1.4,0,2C134.3,206.3,134.6,205.7,134.8,205.1z"/>
		<path class="st27" d="M157.6,73.8c0.7-0.4,1.4-0.5,2.1,0C158.9,74.2,158.2,74,157.6,73.8z"/>
		<path class="st11" d="M211.5,73.9c1.1-0.5,1.7-0.4,2.5-0.2C213.4,74.3,212.7,74,211.5,73.9z"/>
		<path class="st10" d="M369.5,453.7c0.7-0.2,1.4-0.4,2,0C370.8,454.2,370.1,453.9,369.5,453.7z"/>
		<path class="st15" d="M191.4,205.6c0,0.6,0,1.3,0,2C190.7,206.9,191.1,206.2,191.4,205.6z"/>
		<path class="st10" d="M179.4,309.9c-0.4-1.1-0.4-1.7-0.2-2.4C179.8,308.1,179.4,308.8,179.4,309.9z"/>
		<path class="st10" d="M166.9,126.2c0,1.2,0.3,1.8-0.2,2.4C166.4,127.9,166.4,127.2,166.9,126.2z"/>
		<path class="st14" d="M16,228.1c-1.1,0.5-1.7,0.4-2.5,0.2C14.2,227.7,14.8,228.1,16,228.1z"/>
		<path class="st10" d="M81.6,266.1c0.6,0,1.3,0,2.3,0C82.9,266.6,82.2,266.5,81.6,266.1z"/>
		<path class="st11" d="M84.3,185.1c0.3,1.1,0.3,1.8,0,2.4C83.9,186.9,84,186.2,84.3,185.1z"/>
		<path class="st11" d="M57.5,315.1c0.6,0,1.3,0,2,0C58.9,315.8,58.2,315.4,57.5,315.1z"/>
		<path class="st10" d="M110.1,317.3c-0.8,0.3-1.4,0.4-2.2-0.1C108.7,316.9,109.4,316.8,110.1,317.3z"/>
		<path class="st28" d="M158.7,115.7c0.4,1,0.4,1.7,0.1,2.5C158.3,117.4,158.5,116.8,158.7,115.7z"/>
		<path class="st11" d="M276.7,320.7c1.2,0.2,1.8,0.4,2.7,0.5C278.4,321.5,277.8,321.7,276.7,320.7z"/>
		<path class="st15" d="M83.4,136.1c0,0.6,0,1.3,0,2.3C82.9,137.4,83,136.7,83.4,136.1z"/>
		<path class="st1" d="M231.8,286.7c-1,0.4-1.6,0.3-2.6,0.1C230.2,286.4,230.8,286.5,231.8,286.7z"/>
		<path class="st15" d="M194.4,177.4c-0.6-1.1-0.4-1.7-0.4-2.8C194.7,175.7,194.4,176.3,194.4,177.4z"/>
		<path class="st10" d="M109.4,292.9c-0.5-1.1-0.4-1.7-0.2-2.4C109.8,291.1,109.4,291.8,109.4,292.9z"/>
		<path class="st12" d="M295.7,249.9c-0.2-0.7-0.4-1.4,0-2C296.2,248.7,295.9,249.3,295.7,249.9z"/>
		<path class="st2" d="M153.1,350.8c0-1.2-0.3-1.8,0.2-2.5C153.6,349.1,153.7,349.8,153.1,350.8z"/>
		<path class="st15" d="M328.7,294.1c-0.4-0.8-0.4-1.4-0.1-2.2C329.1,292.6,329,293.3,328.7,294.1z"/>
		<path class="st1" d="M197.6,298.9c0-0.6,0-1.2,0-2C198.4,297.6,197.7,298.3,197.6,298.9z"/>
		<path class="st10" d="M112.9,181.9c-0.5-0.6-0.4-1.2-0.2-1.9C113.4,180.6,112.7,181.3,112.9,181.9z"/>
		<path class="st2" d="M114.4,245.1c0,0.6,0,1.2,0,2C113.7,246.4,114.1,245.7,114.4,245.1z"/>
		<path class="st3" d="M254.1,394.7c-0.8,0.4-1.4,0.4-2.2,0.1C252.6,394.3,253.3,394.4,254.1,394.7z"/>
		<path class="st10" d="M330.9,395.1c-0.6,0.5-1.2,0.4-1.9,0.2C329.6,394.5,330.3,395.3,330.9,395.1z"/>
		<path class="st12" d="M207.2,83.4c0.4,0.8,0.4,1.4,0.1,2.2C206.9,84.9,206.9,84.2,207.2,83.4z"/>
		<path class="st10" d="M243.7,264.1c-0.3-0.8-0.4-1.4,0.1-2.2C244.1,262.7,244.1,263.3,243.7,264.1z"/>
		<path class="st1" d="M166.8,259.8c-0.8,0.2-1.3,0.4-1.8-0.1C165.5,259.4,166,259.4,166.8,259.8z"/>
		<path class="st8" d="M323.1,44.6c0.4,0,1.3,0,1.3,0.1c0.1,0.6-0.5,0.3-0.7,0.3c-0.2,0-0.4-0.1-0.6-0.1
			C323,44.8,323,44.7,323.1,44.6z"/>
		<path class="st16" d="M204.6,263.5c0.4,0,1.3,0,1.3,0.1c0.1,0.6-0.5,0.3-0.7,0.3c-0.2,0-0.4-0.1-0.6-0.1
			C204.5,263.7,204.5,263.6,204.6,263.5z"/>
		<path class="st8" d="M333.3,45.3c0.2,0.8,0.4,1.3-0.1,1.8C332.9,46.6,332.9,46,333.3,45.3z"/>
		<path class="st16" d="M61.7,282.7c-0.1-0.4-0.2-0.6-0.2-0.8c0-0.3,0-0.7,0.5-0.5c0.1,0.1,0.2,0.4,0.1,0.6
			C62.1,282.3,61.9,282.4,61.7,282.7z"/>
		<path class="st26" d="M213.1,76c-0.2,0.1-0.4,0.2-0.6,0.2c-0.3-0.1-0.7-0.1-0.6-0.5c0-0.1,0.4-0.1,0.7-0.1
			C212.9,75.5,213.2,75.6,213.1,76z"/>
		<path class="st26" d="M100.3,229.9c0.4,0.5,0.3,1,0,1.7C99.9,231,99.9,230.5,100.3,229.9z"/>
		<path class="st10" d="M217,78.4c0-0.4,0-1.3,0.1-1.3c0.6-0.1,0.3,0.5,0.3,0.7c0,0.2-0.1,0.4-0.1,0.6
			C217.2,78.5,217.1,78.5,217,78.4z"/>
		<path class="st11" d="M209.8,289.4c0.2,0.6,0.3,1.1-0.3,1.4C209.2,290.2,209.4,289.8,209.8,289.4z"/>
		<path class="st15" d="M321.9,291.3c-0.6-0.8-0.3-1.3-0.4-2C322.2,290,321.8,290.5,321.9,291.3z"/>
		<path class="st13" d="M163.4,85.1c0,0.3-0.1,0.4-0.1,0.6c-0.3-0.2-0.5-0.3-0.8-0.5c-0.2-0.2-0.2-0.5,0.1-0.5
			C162.9,84.7,163.1,85,163.4,85.1z"/>
		<path class="st26" d="M98.4,178.5c-0.4-0.5-0.4-1-0.2-1.5C98.8,177.4,98.3,178,98.4,178.5z"/>
		<path class="st13" d="M152.7,87c-0.2,0.2-0.4,0.5-0.7,0.6c-0.3,0.1-0.4-0.2-0.3-0.4c0.2-0.2,0.5-0.4,0.7-0.6
			C152.5,86.8,152.6,86.9,152.7,87z"/>
		<path class="st18" d="M75.3,110.3c0.3,0.8,0.4,1.3,0,1.8C74.9,111.6,75,111.1,75.3,110.3z"/>
		<path class="st29" d="M159.2,112.7c-0.7,0.5-1.2,0.3-2.1,0.3C158,112.4,158.6,112.5,159.2,112.7z"/>
		<path class="st16" d="M191.9,301.8c-0.6-0.7-0.3-1.3-0.4-2C192.3,300.5,191.9,301,191.9,301.8z"/>
		<path class="st11" d="M209.7,302.2c-0.2-0.8-0.4-1.3,0.1-1.8C210.1,301,210.1,301.5,209.7,302.2z"/>
		<path class="st16" d="M200.5,302.1c0,0.4,0,1.3-0.1,1.3c-0.6,0.1-0.3-0.5-0.3-0.7c0-0.2,0.1-0.4,0.1-0.6
			C200.3,302,200.4,302,200.5,302.1z"/>
		<path class="st12" d="M214.8,64.3c-0.4-0.8-0.4-1.3-0.1-1.8C215.2,63,215,63.5,214.8,64.3z"/>
		<path class="st15" d="M166.2,119.6c-0.3-0.5-0.3-1,0-1.7C166.6,118.5,166.6,119.1,166.2,119.6z"/>
		<path class="st15" d="M147.8,123.4c0.3,0.5,0.3,1,0,1.7C147.4,124.5,147.4,124,147.8,123.4z"/>
		<path class="st11" d="M115.5,308.5c-0.4-0.1-1,0-1.1-0.2c-0.4-0.8,0.2-0.4,0.5-0.4c0.2,0,0.4,0.1,0.6,0.2
			C115.5,308.3,115.5,308.4,115.5,308.5z"/>
		<path class="st18" d="M142.2,129.1c-0.3-0.5-0.3-1,0-1.7C142.6,128,142.6,128.5,142.2,129.1z"/>
		<path class="st2" d="M42.8,151.2c-0.3-0.8-0.4-1.3,0-1.8C43.2,150,43.1,150.5,42.8,151.2z"/>
		<path class="st26" d="M34.8,151.6c-0.4-0.3-0.9-0.8-0.5-1.1c0.4-0.3,0.6,0.3,0.7,0.7C35,151.3,34.9,151.5,34.8,151.6z"/>
		<path class="st11" d="M182.9,154.5c-0.4,0-1.3,0-1.3-0.1c-0.1-0.6,0.5-0.3,0.7-0.3c0.2,0,0.4,0.1,0.6,0.1
			C183,154.3,182.9,154.4,182.9,154.5z"/>
		<path class="st15" d="M31.3,159.1c-0.3-0.5-0.3-1,0-1.7C31.6,158,31.7,158.5,31.3,159.1z"/>
		<path class="st10" d="M134.9,176.7c-0.2,0.2-0.4,0.3-0.6,0.5c-0.1-0.2-0.3-0.4-0.3-0.6c0-0.2,0.1-0.4,0.2-0.6
			C134.4,176.1,134.6,176.4,134.9,176.7z"/>
		<path class="st10" d="M180.2,187.6c-0.3-0.5-0.3-1,0-1.7C180.6,186.5,180.6,187,180.2,187.6z"/>
		<path class="st21" d="M54.2,319.2c0.4,0.8,0.4,1.3,0.1,1.8C53.9,320.6,54,320.1,54.2,319.2z"/>
		<path class="st26" d="M120.3,211.1c-0.4-0.5-0.3-1,0-1.7C120.6,210,120.6,210.5,120.3,211.1z"/>
		<path class="st10" d="M108.6,320.3c-0.5,0.3-1,0.3-1.7,0C107.5,319.9,108,319.9,108.6,320.3z"/>
		<path class="st10" d="M114.5,320.1c-0.5,0.4-1,0.4-1.5,0.2C113.4,319.7,114,320.2,114.5,320.1z"/>
		<path class="st16" d="M115.8,191.2c-0.3,0.1-0.4,0.3-0.6,0.3c-0.2,0-0.3-0.3-0.5-0.4c0.1-0.1,0.3-0.4,0.4-0.4
			C115.4,190.7,115.5,190.9,115.8,191.2z"/>
		<path class="st10" d="M192.6,322.2c0.6,0.8,0.3,1.3,0.4,2C192.2,323.5,192.6,323,192.6,322.2z"/>
		<path class="st1" d="M207.7,181.6c-0.2-1.1-0.1-1.5,0.3-1.7c0.1,0,0.3,0.2,0.3,0.2C208.2,180.5,208,180.8,207.7,181.6z"/>
		<path class="st11" d="M290.4,328.3c-0.2,0.2-0.4,0.4-0.7,0.5c-0.3,0.1-0.4-0.2-0.2-0.4c0.2-0.2,0.5-0.4,0.7-0.6
			C290.2,327.9,290.3,328.1,290.4,328.3z"/>
		<path class="st18" d="M160.7,189.5c0.4,0.5,0.4,1,0.2,1.5C160.2,190.6,160.7,190.1,160.7,189.5z"/>
		<path class="st15" d="M31.3,168.4c0.3,0.5,0.3,1,0,1.7C30.9,169.5,30.9,169,31.3,168.4z"/>
		<path class="st30" d="M161.2,74.2c0.9-0.2,1.4-0.4,1.9,0.1C162.5,74.6,162,74.6,161.2,74.2z"/>
		<path class="st11" d="M161.1,341.7c0.2,0.2,0.5,0.2,0.6,0.4c0.2,0.4-0.1,0.6-0.4,0.6c-0.2,0-0.4-0.3-0.5-0.4
			C160.8,342.1,161,341.9,161.1,341.7z"/>
		<path class="st16" d="M250.5,233.4c0-0.4,0-1.3,0.1-1.3c0.6-0.1,0.3,0.5,0.3,0.7c0,0.2-0.1,0.4-0.1,0.6
			C250.7,233.5,250.6,233.4,250.5,233.4z"/>
		<path class="st12" d="M127.2,207c0.4,0.6,0.3,1,0.1,1.6C126.8,208,127.1,207.5,127.2,207z"/>
		<path class="st1" d="M144.7,173.3c0.6,0.6,0.3,1.1,0.4,2.1C144.4,174.5,144.5,174,144.7,173.3z"/>
		<path class="st11" d="M282.2,14.4c-0.4,0-0.6,0.1-0.8,0c-0.2-0.1-0.3-0.4-0.4-0.6c0-0.2,0.1-0.5,0.4-0.2
			C281.7,13.8,281.9,14.1,282.2,14.4z"/>
		<path class="st16" d="M104.3,239.4c0.3,0.5,0.3,1,0,1.7C103.9,240.5,103.9,240,104.3,239.4z"/>
		<path class="st16" d="M266,33.9c0,0.3,0.1,0.7-0.4,0.8c-0.1,0-0.4-0.3-0.4-0.5c0-0.2,0.1-0.5,0.3-0.6
			C266,33.3,265.9,33.7,266,33.9z"/>
		<path class="st10" d="M223.6,371.2c-0.5,0.3-1,0.3-1.7,0C222.5,370.9,223,370.8,223.6,371.2z"/>
		<path class="st10" d="M130.3,171.4c0.3,0.5,0.3,1,0,1.7C129.9,172.5,129.9,172,130.3,171.4z"/>
		<path class="st11" d="M235.2,35.1c0.2,0.2,0.5,0.4,0.6,0.7c0.1,0.3-0.1,0.5-0.4,0.3c-0.2-0.2-0.4-0.5-0.6-0.7
			C234.9,35.3,235,35.3,235.2,35.1z"/>
		<path class="st12" d="M133.7,246.3c0.6,0.6,0.3,1.1,0.4,2.1C133.4,247.5,133.5,247,133.7,246.3z"/>
		<path class="st10" d="M314.1,38.8c-0.5,0.4-1,0.3-1.7,0C313,38.4,313.5,38.4,314.1,38.8z"/>
		<path class="st22" d="M187,178.7c-0.5,0.4-1,0.4-1.5,0.1C185.9,178.3,186.5,178.6,187,178.7z"/>
		<path class="st11" d="M135.2,256.1c-0.3-0.5-0.3-1,0-1.7C135.6,255,135.6,255.5,135.2,256.1z"/>
		<path class="st2" d="M90.3,168.2c-0.3-0.8-0.4-1.3,0-1.8C90.6,166.9,90.6,167.5,90.3,168.2z"/>
		<path class="st10" d="M34.3,162.9c0.3,0.5,0.3,1,0,1.7C34,164,33.9,163.5,34.3,162.9z"/>
		<path class="st1" d="M143.8,162.3c-0.8,0.2-1.3,0.4-1.8-0.1C142.5,161.9,143,161.9,143.8,162.3z"/>
		<path class="st10" d="M332.2,39.5c-0.5,0.9-0.7,1.3-0.9,1.8C330.8,40.5,331.1,40.1,332.2,39.5z"/>
		<path class="st11" d="M389.2,441.1c-0.4-0.7-0.2-1.2-0.1-1.9C389.6,439.9,389.5,440.4,389.2,441.1z"/>
		<path class="st15" d="M293.9,345.8c-0.6-0.8-0.3-1.3-0.4-2C294.2,344.5,293.9,345,293.9,345.8z"/>
	</g>
</g>
</svg>
