<?xml version="1.0" encoding="utf-8"?>
<!-- Generator: Adobe Illustrator 24.1.1, SVG Export Plug-In . SVG Version: 6.00 Build 0)  -->
<svg version="1.1" id="Layer_1" xmlns="http://www.w3.org/2000/svg" xmlns:xlink="http://www.w3.org/1999/xlink" x="0px" y="0px"
	 viewBox="0 0 1280 1193" style="enable-background:new 0 0 1280 1193;" xml:space="preserve">
<style type="text/css">
	.st0{fill:#FDFDFD;}
	.st1{fill:#ECECEC;}
	.st2{fill:#EFEFEF;}
	.st3{fill:#EEEEEE;}
	.st4{fill:#F2F2F2;}
	.st5{fill:#F4F4F4;}
	.st6{fill:#F0F0F0;}
	.st7{fill:#EBEBEB;}
	.st8{fill:#F1F1F1;}
	.st9{fill:#EDEDED;}
	.st10{fill:#ECEDED;}
	.st11{fill:#EFF0F0;}
</style>
<g>
	<g>
		<path class="st0" d="M640,1192.9c-211.8,0-423.6,0-635.4,0.1c-3.7,0-4.6-0.8-4.6-4.6C0.1,793.8,0.1,399.2,0,4.6C0,0.8,0.8,0,4.6,0
			c423.6,0.1,847.2,0.1,1270.8,0c3.7,0,4.6,0.8,4.6,4.6c-0.1,394.6-0.1,789.2,0,1183.8c0,3.7-0.8,4.6-4.6,4.6
			C1063.6,1192.9,851.8,1192.9,640,1192.9z"/>
		<path class="st1" d="M203.8,497.3c0,11.9,0,23.8,0,35.7c-0.2,0-0.3,0-0.5,0c0-11.9,0-23.8,0-35.7
			C203.5,497.2,203.6,497.3,203.8,497.3z"/>
		<path class="st2" d="M647.2,1089c-2.7-5.7,0.7-11.3,0-17C649.5,1077.7,648.2,1083.4,647.2,1089z"/>
		<path class="st3" d="M767.7,523.3c0,7.6,0,15.1,0,22.7c-0.2,0-0.3,0-0.5,0c0-7.6,0-15.1,0-22.7
			C767.4,523.3,767.6,523.3,767.7,523.3z"/>
		<path class="st4" d="M934.2,412.4c6.2,0.6,12.5-1.1,19.4,0C946.6,412.4,940.4,412.4,934.2,412.4z"/>
		<path class="st2" d="M857.1,467.2c6.6,0,13.2,0,19.7,0c0,0.2,0,0.3,0,0.5c-6.5,0-13.1,0-19.6,0
			C857.2,467.6,857.2,467.4,857.1,467.2z"/>
		<path class="st4" d="M865.2,537.9c-2.8,0-5.2,0.6-7.6-1C860.1,536.5,862.5,533,865.2,537.9z"/>
		<path class="st5" d="M912.9,502.7c3.9-1.8,7.9,0.3,11.8,0C920.8,502.7,916.8,502.7,912.9,502.7z"/>
		<path class="st6" d="M927.3,428.3c4.9,0,9.7,0,14.6,0c0,0.2,0,0.3,0,0.5c-4.9,0-9.8,0-14.7,0C927.2,428.6,927.2,428.5,927.3,428.3
			z"/>
		<path class="st4" d="M914.7,441.8c2-1.9,5.2,0.9,6-2.7c0.2-0.9,1.4-0.6,2.1,0c0.3,0.3,0.7,0.8,0.7,1.1c0,0.9-0.8,1.6-1.6,1.6
			C919.7,441.9,917.4,441.8,914.7,441.8z"/>
		<path class="st2" d="M876.7,529.7c-4.5,0.7-8.4-0.2-12.8,1.2C866.5,528.7,869.8,528.4,876.7,529.7z"/>
		<path class="st3" d="M951.6,485.5c3.6-3.3,7.2-2.4,10.2-3.3C959.2,484.4,956,484.9,951.6,485.5z"/>
		<path class="st7" d="M871.2,477.3c4.2,0,8.5,0,12.7,0c0,0.2,0,0.3,0,0.5c-4.2,0-8.5,0-12.7,0C871.2,477.6,871.2,477.4,871.2,477.3
			z"/>
		<path class="st8" d="M198.9,539.5c0,4.1,0,8.2,0,12.3c-0.2,0-0.3,0-0.5,0c0-4.3,0-8.5,0-12.8C198.5,539.2,198.7,539.3,198.9,539.5
			z"/>
		<path class="st8" d="M932.9,463.4c-1.8,1.5-3.1,4.1-6.5,2.3C928.4,463.9,930.7,463.7,932.9,463.4z"/>
		<path class="st8" d="M198.2,485.7c0-3.4,0-6.9,0-10.3c0.2,0,0.3,0,0.5,0c0,3.5,0,7,0,10.6C198.5,485.8,198.4,485.8,198.2,485.7z"
			/>
		<path class="st4" d="M834.1,512.9c2.8-1.4,4.8-2.5,7.5-1.3C839.4,513.7,837.1,512.9,834.1,512.9z"/>
		<path class="st1" d="M936.1,419.3c2.9,0,5.8,0,8.7,0c0,0.2,0,0.3,0,0.5c-2.9,0-5.8,0-8.7,0C936.2,419.6,936.2,419.4,936.1,419.3z"
			/>
		<path class="st3" d="M199.3,568.9c0-2.9,0-5.8,0-8.8C200.3,563.1,200.2,566,199.3,568.9z"/>
		<ellipse class="st2" cx="199.6" cy="463" rx="0.3" ry="5.6"/>
		<path class="st9" d="M884.8,482.1c2.9,0,4.5,0,6.3,0C889.4,484.8,887.7,483.3,884.8,482.1z"/>
		<path class="st2" d="M865.2,473.5c2-0.6,3.9-0.8,6.3,0C869,474.3,867,474.1,865.2,473.5z"/>
		<path class="st3" d="M867.2,497.2c1.9,0,3.8,0,6.3,0C871,498.6,869,497.7,867.2,497.2z"/>
		<path class="st9" d="M204.6,543.2c0.6,2,0.7,3.9,0,6.4C203.8,547,204,545.1,204.6,543.2z"/>
		<path class="st2" d="M207.7,588.1c-0.9-3.1-0.7-5,0-6.9C207.7,583.1,207.7,584.9,207.7,588.1z"/>
		<path class="st10" d="M204.6,481c0.5,3.1,0.6,5-0.2,8C204,486,203.8,484,204.6,481z"/>
		<path class="st9" d="M929.1,435c2.5-1.5,4.2-0.8,6.8-0.9C933.3,435.5,931.6,434.8,929.1,435z"/>
		<path class="st1" d="M865.2,463.2c1.6,0,3.1,0,6.1,0C868.3,464.2,866.7,464.1,865.2,463.2z"/>
		<path class="st9" d="M893.8,473.4c-1.6,0.7-3.2,0.8-4.9,0.3C890.6,472.4,892.2,473.4,893.8,473.4z"/>
		<path class="st1" d="M858.1,497.7c1.5-0.8,3.1-0.8,4.7,0C861.3,497.7,859.7,497.7,858.1,497.7z"/>
		<path class="st11" d="M813.1,520.6c1.6-0.7,3.2-0.8,5-0.2C816.3,521.6,814.7,520.7,813.1,520.6z"/>
		<path class="st3" d="M890.1,476.7c1.5-0.8,3.1-0.8,4.7,0C893.3,476.7,891.7,476.7,890.1,476.7z"/>
		<path class="st2" d="M864.9,476.1c-2.5,1.5-4.2,0.8-6.8,0.9C860.6,475.5,862.3,476.2,864.9,476.1z"/>
		<path class="st2" d="M881.1,462.7c1.1-0.9,2.4-0.8,3.7-0.5C883.7,463.9,882.3,462.4,881.1,462.7z"/>
		<path class="st3" d="M863.2,472.3c-2.6,0.8-3.9,0.9-6.1,0C859.3,472.3,860.6,472.3,863.2,472.3z"/>
		<path class="st2" d="M865.6,486c-1.2-0.1-2.5-0.2-4.3-0.3C863.3,484.6,864.7,485.1,865.6,486z"/>
		<path class="st2" d="M205.5,559.8c0.8,1.5,0.7,2.9,0.1,4.4C204.8,562.7,204.9,561.4,205.5,559.8z"/>
		<path class="st2" d="M203.6,606.2c-0.8-1.5-0.7-2.9-0.1-4.4C204.3,603.3,204.2,604.7,203.6,606.2z"/>
		<path class="st6" d="M956.5,426.7c-0.7,0.1-1.2-0.2-1.1-0.7c0.1-0.3,0.6-0.6,1-0.7c0.2-0.1,0.5,0.3,0.8,0.4
			C957,426,956.7,426.4,956.5,426.7z"/>
		<path class="st1" d="M200.4,574.1c0.9,0.9,0.9,1.9,0.3,3C199.5,576.2,200.4,575.1,200.4,574.1z"/>
	</g>
</g>
</svg>
